<svg preserveAspectRatio="xMidYMid meet" width="100%" height="100%" overflow="visible" style="display: block;" viewBox="0 0 82.5 49.5" fill="none" xmlns="http://www.w3.org/2000/svg">
<g id="Group">
<path id="Vector" d="M5.38124 18.4564C6.04925 18.4564 6.64304 18.2349 7.08839 17.7919C7.57084 17.349 7.79352 16.7584 7.79352 16.0939C7.79352 15.4295 7.57084 14.8389 7.08839 14.396C6.60593 13.9161 6.04925 13.6946 5.38124 13.6946C4.71322 13.6946 4.11943 13.9161 3.67408 14.396C3.19163 14.8758 2.96896 15.4295 2.96896 16.0939C2.96896 16.7584 3.19163 17.349 3.67408 17.7919C4.15654 18.2349 4.71322 18.4564 5.38124 18.4564Z" fill="#8B5CF6"/>
<path id="Vector_2" d="M10.7996 18.4564C11.4676 18.4564 12.0614 18.2349 12.5067 17.7919C12.9892 17.349 13.2119 16.7584 13.2119 16.0939C13.2119 15.4295 12.9892 14.8389 12.5067 14.396C12.0243 13.9161 11.4676 13.6946 10.7996 13.6946C10.1316 13.6946 9.53779 13.9161 9.09244 14.396C8.6471 14.8758 8.38732 15.4295 8.38732 16.0939C8.38732 16.7584 8.60999 17.349 9.09244 17.7919C9.5749 18.2349 10.1316 18.4564 10.7996 18.4564Z" fill="#8B5CF6"/>
<path id="Vector_3" d="M27.7227 20.7819C28.3907 20.7819 28.9845 20.5604 29.4298 20.1175C29.9123 19.6745 30.135 19.0839 30.135 18.4195C30.135 17.7551 29.9123 17.1645 29.4298 16.7215C28.9474 16.2416 28.3907 16.0202 27.7227 16.0202C27.0547 16.0202 26.4609 16.2416 26.0155 16.7215C25.5702 17.2014 25.3104 17.7551 25.3104 18.4195C25.3104 19.0839 25.5331 19.6745 26.0155 20.1175C26.498 20.5604 27.0547 20.7819 27.7227 20.7819Z" fill="#8B5CF6"/>
<path id="Vector_4" d="M40.8974 44.7383C40.2294 44.7383 39.6356 44.9597 39.1903 45.4396C38.7449 45.9195 38.4852 46.4732 38.4852 47.1376C38.4852 47.802 38.7078 48.3926 39.1903 48.8356C39.6727 49.2785 40.2294 49.5 40.8974 49.5C41.5655 49.5 42.1593 49.2785 42.6046 48.8356C43.0499 48.3926 43.3097 47.802 43.3097 47.1376C43.3097 46.4732 43.0871 45.8826 42.6046 45.4396C42.1221 44.9597 41.5655 44.7383 40.8974 44.7383Z" fill="#8B5CF6"/>
<path id="Vector_5" d="M35.442 44.7383C34.774 44.7383 34.1802 44.9597 33.7348 45.4396C33.2895 45.9195 33.0297 46.4732 33.0297 47.1376C33.0297 47.802 33.2524 48.3926 33.7348 48.8356C34.2173 49.2785 34.774 49.5 35.442 49.5C36.11 49.5 36.7038 49.2785 37.1491 48.8356C37.5945 48.3926 37.8543 47.802 37.8543 47.1376C37.8543 46.4732 37.6316 45.8826 37.1491 45.4396C36.6667 44.9597 36.11 44.7383 35.442 44.7383Z" fill="#8B5CF6"/>
<path id="Vector_6" d="M67.6923 27.3154C66.8387 25.9128 65.7625 24.8054 64.3893 24.0302C63.0162 23.2181 61.5317 22.8121 59.9359 22.8121C58.3401 22.8121 57.0412 23.1812 55.668 23.9195C54.2949 24.6577 53.1444 25.7282 52.2908 27.2047C51.4001 28.6443 50.9548 30.4899 50.9548 32.6309C50.9548 34.7718 51.0661 34.6242 51.2517 35.6208H43.8664C43.8293 34.9933 43.7922 34.3658 43.7551 33.6644C43.6808 32.5201 43.6437 31.3389 43.6437 30.1946V25.6544L43.5324 25.3222L37.9285 25.9866V29.4195C37.9285 31.0067 37.9656 32.5201 38.0398 33.9597C38.0398 34.4765 38.114 35.0302 38.1512 35.6208H34.2173H30.803C30.7659 34.9933 30.7287 34.3658 30.6916 33.6644C30.6174 32.5201 30.5803 31.3389 30.5803 30.1946V25.6544L30.469 25.3222L24.8651 25.9866V29.4195C24.8651 31.0067 24.9022 32.5201 24.9764 33.9597C24.9764 34.4765 25.0506 35.0302 25.0877 35.6208H21.1538H17.4798V21.6678L17.3684 21.2987L14.3252 21.6678L11.7274 22V33.9228C11.2078 34.1443 10.7254 34.3289 10.3171 34.4396C9.64912 34.6242 9.16667 34.698 8.42443 34.698C7.68219 34.698 7.12551 34.5503 6.75439 34.1812C6.34615 33.849 6.08637 33.4061 5.97503 32.9262C5.8637 32.4463 5.78947 32.0034 5.78947 31.6342C5.78947 31.4128 5.82659 31.2282 5.82659 31.0436V30.896C7.60796 30.3054 9.278 29.7148 10.8367 29.0873C11.1336 28.9765 11.4305 28.8289 11.7274 28.7181V23.0336C10.4656 23.6611 9.12956 24.2517 7.68219 24.8054C5.82659 25.5436 3.78543 26.245 1.5587 26.9094C1.41026 26.9832 1.26181 27.0201 1.11336 27.0571L0.816464 27.3154C0.259784 28.5336 0 29.5671 0 31.2282C0 32.8893 0.37112 34.3658 1.07625 35.6577C1.78138 36.9497 2.7834 37.9463 4.04521 38.6477C5.30702 39.349 7.27396 39.7181 8.42443 39.7181C9.5749 39.7181 10.6883 39.4967 11.7274 39.0168V40.641H17.4798H21.1538H25.6815H28.7989H34.2173H38.7449H41.8624H47.2807H55.1485C55.2227 40.641 55.334 40.7148 55.4082 40.7148C56.6329 41.0839 57.8576 41.2685 59.0823 41.2685C60.8637 41.2685 62.4966 40.8993 63.9811 40.1611C65.4656 39.4228 66.6532 38.3524 67.581 36.9866C68.5088 35.6208 68.9541 33.9967 68.9541 32.151C68.9541 30.3054 68.5459 28.7181 67.6923 27.3154ZM62.7193 34.3658V34.3289C62.3853 34.9195 61.9028 35.3993 61.309 35.7316C60.6781 36.0638 59.9359 36.2483 59.0823 36.2483C58.2288 36.2483 57.8205 36.1745 57.2638 35.9899C57.1525 35.6946 57.0783 35.3255 56.9669 34.9564C56.7814 34.1443 56.7072 33.3691 56.7072 32.6309C56.7072 31.8926 56.8556 30.7483 57.1154 30.047C57.4123 29.3456 57.7834 28.792 58.303 28.4228C58.7854 28.0537 59.3421 27.8691 59.9359 27.8691C60.5297 27.8691 61.0864 28.0537 61.5688 28.4228C62.0513 28.792 62.4595 29.3087 62.7564 29.9363C63.0533 30.6007 63.2018 31.3389 63.2018 32.1879C63.2018 33.0369 63.0533 33.7752 62.7193 34.3658Z" fill="#8B5CF6"/>
<path id="Vector_7" d="M81.2383 2.51005C81.2383 2.51005 81.2271 2.51751 81.2196 2.52124L81.2383 2.54737V2.51005Z" fill="#8B5CF6"/>
<path id="Vector_8" d="M77.9278 7.41946L78.2321 7.34564C77.9352 7.34564 77.7125 7.2349 77.5641 7.05034C77.3785 6.86577 77.3043 6.64429 77.3043 6.38591C77.3043 5.97987 77.5641 5.5 78.0837 4.87248C78.5995 4.28557 79.6721 3.47718 81.2196 2.52114L79.4568 0H79.2713C78.4919 0.516779 77.6383 1.03356 76.8219 1.62416C75.9683 2.21477 75.2632 2.84228 74.6694 3.50671C74.0756 4.17114 73.8158 4.94631 73.8158 5.83221C73.8158 6.71812 73.9271 6.86577 74.1498 7.38255C74.1609 7.40839 74.1721 7.43054 74.1832 7.45638C74.1721 7.45638 74.1609 7.45638 74.1498 7.45638C73.89 7.45638 73.6673 7.41946 73.4818 7.41946H73.2591V10.4832H81.6464L82.5 7.60403V7.41946H77.9278Z" fill="#8B5CF6"/>
<path id="Vector_9" d="M80.7557 36.8758C80.6815 35.9161 80.6073 34.8456 80.5331 33.6644C80.4588 32.5201 80.4217 31.3389 80.4217 30.1946V12.5872L80.3104 12.255L74.7065 12.9195V40.6409H80.4588L81.0897 40.0503C80.9413 38.906 80.83 37.8356 80.7557 36.8389V36.8758Z" fill="#8B5CF6"/>
<path id="Vector_10" d="M35.9504 15.8799H39.6839L40.7267 18.5671H42.0739L38.4221 9.68959H37.1491L33.72 18.5671H34.9744L35.9541 15.8799H35.9504ZM37.2716 12.3178C37.4794 11.7567 37.639 11.1919 37.7503 10.6235C37.8877 11.1033 38.0992 11.7161 38.385 12.4654L39.3165 14.9238H36.2918L37.2716 12.3215V12.3178Z" fill="#8B5CF6"/>
<path id="Vector_11" d="M43.9703 15.2302C43.9703 14.6433 44.0297 14.1967 44.1447 13.8866C44.2635 13.5765 44.4528 13.3403 44.7163 13.1779C44.9798 13.0155 45.2618 12.9343 45.5698 12.9343C45.9744 12.9343 46.2676 13.0561 46.4457 13.296C46.6238 13.5359 46.7129 13.9014 46.7129 14.3849V18.5634H47.8077V14.8279C47.8077 14.1671 47.9561 13.6836 48.2568 13.3846C48.5574 13.0819 48.9359 12.9343 49.3887 12.9343C49.641 12.9343 49.86 12.9933 50.0456 13.1114C50.2311 13.2296 50.361 13.3846 50.4315 13.5728C50.502 13.7648 50.5391 14.0786 50.5391 14.5141V18.5671H51.6302V14.1524C51.6302 13.4178 51.4595 12.8752 51.1144 12.5208C50.7692 12.1665 50.2757 11.9893 49.6336 11.9893C48.8134 11.9893 48.1491 12.3658 47.637 13.1151C47.5108 12.7608 47.2956 12.4839 46.9875 12.2846C46.6795 12.0853 46.2898 11.9893 45.8111 11.9893C45.3806 11.9893 44.9983 12.0853 44.6606 12.2772C44.3229 12.4692 44.0557 12.7239 43.8516 13.0376V12.1332H42.8718V18.5634H43.9666V15.2265L43.9703 15.2302Z" fill="#8B5CF6"/>
<path id="Vector_12" d="M54.3617 9.68959H53.2669V10.9446H54.3617V9.68959Z" fill="#8B5CF6"/>
<path id="Vector_13" d="M54.3617 12.1369H53.2669V18.5671H54.3617V12.1369Z" fill="#8B5CF6"/>
<path id="Vector_14" d="M57.1265 15.053C57.1265 14.2299 57.2972 13.6688 57.6349 13.3772C57.9727 13.0819 58.3772 12.9343 58.8448 12.9343C59.138 12.9343 59.3903 13.0007 59.6093 13.1299C59.8245 13.2628 59.9767 13.4363 60.0621 13.6577C60.1474 13.8792 60.1882 14.2114 60.1882 14.6544V18.5671H61.2831V14.6138C61.2831 14.1081 61.2645 13.7574 61.2237 13.5544C61.1606 13.2443 61.0455 12.9749 60.8822 12.7497C60.719 12.5245 60.474 12.34 60.1474 12.2034C59.8208 12.0631 59.4609 11.993 59.0712 11.993C58.1731 11.993 57.4865 12.3473 57.0152 13.0524V12.1369H56.028V18.5671H57.1228V15.053H57.1265Z" fill="#8B5CF6"/>
<path id="Vector_15" d="M65.139 14.8611C64.7048 14.9128 64.3782 14.9681 64.1667 15.0235C63.8735 15.1047 63.61 15.2228 63.3799 15.3816C63.1498 15.5403 62.9568 15.747 62.8121 16.0091C62.6673 16.2712 62.5968 16.5554 62.5968 16.8728C62.5968 17.4118 62.7861 17.851 63.1684 18.1943C63.5506 18.5376 64.0961 18.7111 64.805 18.7111C65.2355 18.7111 65.64 18.641 66.0148 18.5007C66.3897 18.3604 66.7793 18.1168 67.1876 17.7735C67.221 18.0762 67.2915 18.342 67.4065 18.5671H68.5496C68.4123 18.3198 68.3195 18.0651 68.2713 17.7957C68.2267 17.5262 68.2007 16.8876 68.2007 15.8725V14.4181C68.2007 13.9346 68.1822 13.5987 68.1451 13.4141C68.082 13.1151 67.9669 12.8678 67.8036 12.6722C67.6403 12.4765 67.388 12.3141 67.0428 12.1849C66.6977 12.0557 66.2486 11.9893 65.6957 11.9893C65.1427 11.9893 64.6491 12.0668 64.2298 12.2181C63.8067 12.3695 63.4838 12.5873 63.2611 12.8678C63.0385 13.1483 62.8789 13.5175 62.7824 13.9715L63.8549 14.1155C63.9737 13.6577 64.1555 13.3403 64.4005 13.1631C64.6454 12.9859 65.0277 12.8937 65.5435 12.8937C66.0965 12.8937 66.5121 13.0155 66.7905 13.2628C66.9983 13.4437 67.1022 13.7574 67.1022 14.2004C67.1022 14.241 67.1022 14.3369 67.0948 14.4846C66.6754 14.6286 66.026 14.7541 65.139 14.8611ZM67.0948 15.7396C67.0948 16.2195 67.0354 16.5849 66.9167 16.8286C66.7608 17.146 66.5196 17.397 66.193 17.5816C65.8627 17.7661 65.4879 17.8584 65.0648 17.8584C64.6417 17.8584 64.3151 17.7624 64.0924 17.5668C63.8698 17.3712 63.7621 17.1312 63.7621 16.8396C63.7621 16.6514 63.8141 16.4779 63.9143 16.3228C64.0145 16.1678 64.1592 16.0497 64.3485 15.9685C64.5378 15.8873 64.8532 15.8134 65.306 15.7507C66.1002 15.6363 66.6977 15.4997 67.0948 15.3373V15.7359V15.7396Z" fill="#8B5CF6"/>
</g>
</svg>
